<?xml version="1.0" encoding="UTF-8"?>
<svg width="173px" height="30px" viewBox="0 0 173 30" version="1.1" xmlns="http://www.w3.org/2000/svg" xmlns:xlink="http://www.w3.org/1999/xlink">
    <!-- Generator: sketchtool 41 (35326) - http://www.bohemiancoding.com/sketch -->
    <title>3DBEB7C5-5050-4CBC-B584-992E6D4F2CA6</title>
    <desc>Created with sketchtool.</desc>
    <defs>
        <style>
            .cls-1 {
            fill: #fff;
            fill-rule: evenodd;
            }
        </style>
    </defs>
    <g id="Barcelona-Dashboard" stroke="none" stroke-width="1" fill="none" fill-rule="evenodd">
        <g id="desktop-hd---barcelona-color-5" transform="translate(-100.000000, -25.000000)">
            <g id="header">
                <g id="barcelona-logo-text-color-1" transform="translate(100.000000, 25.000000)">
                    <path id="BookMyRoom" class="cls-1" d="M3.853,28.309h6.955l2.375-3.563V19.11l-0.8-1.163H10.3l0.606,0.909v4.472L9.864,24.891H6.131v-7.6h6.447l1.042,1.563V25l-2.205,3.309h2.108L15.9,24.745V17.437l-2.375-3.563H6.131v-7.6H12l1.042,1.563V13.22h0.654l0.969,1.491,0.654-.982V6.421L12.942,2.857H3.853V28.309ZM1.139,6.275V28.309H3.417V2.857ZM12.6,13.22V8.093L11.827,6.93H9.718l0.606,0.909v4.472l-0.606.909H12.6ZM19.514,25.4l1.939,2.909H27.39L29.329,25.4V11.838l-0.654-.945h-1.7l0.485,0.727V24.236l-0.848,1.273H22.228L21.38,24.236V10.275l1.793-2.691H21.452l-1.939,2.909V25.4Zm2.205-14.907V24.018L22.373,25h1.7l-0.485-.764V11.62l0.848-1.273H28.82l0.848,1.273v14l-1.793,2.691H29.6L31.534,25.4V10.493L29.6,7.584H23.658ZM35.343,25.4l1.939,2.909h5.938L45.158,25.4V11.838L44.5,10.893h-1.7l0.485,0.727V24.236l-0.848,1.273H38.057l-0.848-1.273V10.275L39,7.584H37.282l-1.939,2.909V25.4Zm2.205-14.907V24.018L38.2,25h1.7l-0.485-.764V11.62l0.848-1.273h4.387L45.5,11.62v14L43.7,28.309h1.721L47.363,25.4V10.493L45.425,7.584H39.487ZM55.316,25.509V19.328h5.235L61.4,20.6v7.708l1.866-2.8V19.437l-1.939-2.872h-6.01V7.584H53.45V28.309Zm-2.205,2.8V7.584l-1.866,2.763V28.309h1.866Zm8.361-12.289,0.8,1.2,0.533-.8V7.584H60.939v8.435h0.533Zm-2.763,3.854L59.194,20.6v7.708H61.06v-7.49l-0.654-.982Zm-0.485-3.854H60.6V7.584l-1.866,2.763v4.945ZM69.788,28.309l2.278-3.418V7.839l1.042-1.563h3.126l1.042,1.563v20.47l2.278-3.418V6.421L77.18,2.857H72.163L69.788,6.421V28.309ZM79.967,6.166V7.184l0.63-.909h3.1l1.042,1.563v20.47l2.278-3.418V6.421L84.644,2.857H79.652L78.707,4.275ZM67.074,28.309h2.278V6.166l2.205-3.309H69.449L67.074,6.421V28.309ZM82.051,7.839v20.47h2.278V8.093l-0.8-1.163H81.421Zm-7.489,0v20.47h2.278V8.093l-0.8-1.163H73.932Zm16.8,6.472v3.527L93.3,20.746h0.872v7.563H96.04V20.746h0.873l1.939-2.909V14.31L100.015,13V7.584l-1.866,2.763V13L96.985,14.31v2.363l-0.848,1.273h-2.06l-0.848-1.273V14.31L92.066,13V7.584L90.2,10.347V13Zm5.017,6.945v7.054l1.866-2.8V22.055l2.811-4.218V14.31L102.22,13V7.584h-1.866v5.672l-1.163,1.309v3.49l-2.133,3.2H96.379ZM92.4,7.584v5.163l1.163,1.309v2.4L94.223,17.4h1.7l-0.485-.727V14.31L94.271,13V7.584H92.4Zm15.829-4.727V28.309l2.278-3.418v-7.6h6.446L118,18.855v9.453l2.278-3.418V17.437L117.9,13.874h-7.391v-7.6h5.865l1.042,1.563V13.22h0.654l0.969,1.491,0.655-.982V6.421l-2.375-3.563h-9.088ZM107.8,28.309V2.857l-2.278,3.418V28.309H107.8Zm7.489-9.453v9.453h2.278v-9.2l-0.8-1.163H114.68ZM114.1,6.93l0.6,0.909v4.472l-0.6.909h2.883V8.093L116.207,6.93H114.1Zm9.819,18.47,1.939,2.909h5.937l1.939-2.909V11.838l-0.654-.945h-1.7l0.485,0.727V24.236l-0.848,1.273h-4.387l-0.848-1.273V10.275l1.793-2.691h-1.72l-1.939,2.909V25.4Zm2.2-14.907V24.018L126.778,25h1.7l-0.485-.764V11.62l0.849-1.273h4.386l0.848,1.273v14l-1.793,2.691H134l1.939-2.909V10.493L134,7.584h-5.938ZM139.747,25.4l1.939,2.909h5.937l1.939-2.909V11.838l-0.654-.945h-1.7L147.7,11.62V24.236l-0.848,1.273h-4.387l-0.848-1.273V10.275l1.793-2.691h-1.72l-1.939,2.909V25.4Zm2.2-14.907V24.018L142.607,25h1.7l-0.485-.764V11.62l0.849-1.273h4.386L149.9,11.62v14l-1.793,2.691h1.721l1.939-2.909V10.493l-1.939-2.909h-5.938Zm15.9,0V28.309l1.866-2.8V11.62l0.848-1.273h2.545l0.848,1.273V28.309l1.842-2.8V10.493l-1.939-2.909h-4.071Zm8.313-.218v0.836l0.484-.763H169.2l0.848,1.273V28.309l1.866-2.8V10.493l-1.938-2.909H165.9l-0.775,1.127Zm-8.652,18.034V10.275l1.793-2.691h-1.72l-1.939,2.909V28.309h1.866Zm9.839-17.416,0.485,0.727V28.309h1.866V11.838l-0.654-.945h-1.7Zm-6.107,0,0.509,0.727V28.309H163.6V11.838l-0.63-.945h-1.721Z"/>
                </g>
            </g>
        </g>
    </g>
</svg>